<?xml version="1.0" encoding="UTF-8" standalone="no"?>
<!-- Created with Inkscape (http://www.inkscape.org/) -->

<svg
   width="200.12798mm"
   height="160.30702mm"
   viewBox="0 0 200.12798 160.30702"
   version="1.1"
   id="svg1"
   inkscape:version="1.3.2 (091e20e, 2023-11-25, custom)"
   sodipodi:docname="faviconV1.svg"
   xmlns:inkscape="http://www.inkscape.org/namespaces/inkscape"
   xmlns:sodipodi="http://sodipodi.sourceforge.net/DTD/sodipodi-0.dtd"
   xmlns="http://www.w3.org/2000/svg"
   xmlns:svg="http://www.w3.org/2000/svg">
  <sodipodi:namedview
     id="namedview1"
     pagecolor="#ffffff"
     bordercolor="#000000"
     borderopacity="0.25"
     inkscape:showpageshadow="2"
     inkscape:pageopacity="0.0"
     inkscape:pagecheckerboard="0"
     inkscape:deskcolor="#d1d1d1"
     inkscape:document-units="mm"
     inkscape:zoom="0.69397447"
     inkscape:cx="479.12425"
     inkscape:cy="515.14863"
     inkscape:window-width="1920"
     inkscape:window-height="1017"
     inkscape:window-x="-8"
     inkscape:window-y="-8"
     inkscape:window-maximized="1"
     inkscape:current-layer="layer1" />
  <defs
     id="defs1" />
  <g
     inkscape:label="Camada 1"
     inkscape:groupmode="layer"
     id="layer1"
     transform="translate(21.814356,-12.532532)">
    <path
       style="fill:#daad95;stroke:#000000;stroke-width:0.1;stroke-opacity:1;fill-opacity:1"
       d="M 18.513095,158.0322 C 5.8475177,148.40142 -9.8493381,135.35111 -9.5689062,102.45989 -8.5386981,92.138016 -7.7453715,83.688759 -3.6514471,74.700863 -11.761641,71.015191 -19.220668,66.388898 -21.72733,51.567893 -22.52108,31.769043 -10.4333,18.440102 2.8039892,13.64101 23.932026,9.4120159 32.239123,18.594486 38.041091,28.058738 c 15.318079,-6.36823 28.416065,-8.758873 40.208544,-8.826844 11.792479,0.06797 24.890465,2.458614 40.208545,8.826844 5.80197,-9.464252 14.10906,-18.6467221 35.2371,-14.417728 13.23729,4.799092 25.32507,18.128033 24.53132,37.926883 -2.50666,14.821005 -9.96569,19.447298 -18.07588,23.13297 4.09392,8.987896 4.88725,17.437153 5.91746,27.759027 0.28043,32.89122 -15.41643,45.94153 -28.08201,55.57231 -42.134766,20.70572 -85.588982,18.62022 -119.473075,0 z"
       id="path2" />
    <path
       style="fill:#e8ccbd;stroke:#000000;stroke-width:0.1;stroke-opacity:1;fill-opacity:1"
       d="m 99.312637,77.880573 c 2.7e-5,10.506365 8.517093,19.023435 19.023463,19.023435 10.50634,-2.6e-5 19.02341,-8.517096 19.02344,-19.023435 2e-5,-10.506366 -8.51707,-19.023462 -19.02344,-19.023489 -10.50637,0 -19.023489,8.517123 -19.023463,19.023489 z"
       id="path11" />
    <path
       style="fill:#ffffff;stroke:#000000;stroke-width:0.1;stroke-opacity:1;fill-opacity:1"
       d="m 136.05943,78.714037 c -6.52159,-7.29615 -22.64672,-13.093833 -34.84484,-1.978078 -0.55869,1.762521 -0.6468,4.666271 1.36944,6.999393 8.55622,8.29945 26.52868,8.035422 33.4754,-5.021315 z"
       id="path14" />
    <path
       style="fill:#e8ccbd;stroke:#000000;stroke-width:0.1;stroke-opacity:1;fill-opacity:1"
       d="m 57.186632,77.880573 c -2.6e-5,10.506365 -8.517096,19.023435 -19.023462,19.023435 -10.506339,-2.6e-5 -19.023409,-8.517096 -19.023436,-19.023435 -2.6e-5,-10.506366 8.51707,-19.023462 19.023436,-19.023489 10.506366,0 19.023489,8.517123 19.023462,19.023489 z"
       id="path6" />
    <path
       style="fill:#660100;stroke:#000000;stroke-width:0.1;stroke-opacity:1;fill-opacity:1"
       d="m 106.89366,78.717437 c 0,4.428649 3.59016,8.01878 8.01881,8.01878 4.42865,0 8.01878,-3.590131 8.01878,-8.01878 0,-4.428649 -3.59013,-8.018806 -8.01878,-8.018806 -4.42867,0 -8.01881,3.590131 -8.01881,8.018806 z"
       id="path15" />
    <path
       style="fill:#f9f0ed;stroke:#000000;stroke-width:0.1;stroke-opacity:1;fill-opacity:1"
       d="M 118.56092,128.47065 C 120.46912,109.55707 105.7876,83.820654 78.249635,83.887514 50.711669,83.820654 36.030152,109.55707 37.938354,128.47065 c 1.152816,14.62416 14.129966,31.18176 40.311281,32.25811 26.181315,-1.07635 39.158465,-17.63395 40.311285,-32.25811 z"
       id="path13" />
    <path
       style="fill:#b0653c;stroke:#000000;stroke-width:0.1;stroke-opacity:1;fill-opacity:1"
       d="m 133.62486,55.053037 c 1.64772,0.697786 2.74868,-1.220205 1.29336,-2.510657 -7.76472,-7.537133 -23.07182,-13.020596 -35.453474,-5.173478 -2.490179,2.517696 -1.762654,7.521866 3.271444,7.455879 8.56898,-3.859953 17.89745,-6.163363 30.88867,0.228256 z"
       id="path12" />
    <path
       style="fill:#ffffff;stroke:#000000;stroke-width:0.1;stroke-opacity:1;fill-opacity:1"
       d="m 109.14397,75.351579 c 0,1.326939 1.07569,2.402602 2.40263,2.402602 1.32691,0 2.4026,-1.07569 2.4026,-2.402602 0,-1.326938 -1.07566,-2.402628 -2.4026,-2.402628 -1.32694,0 -2.40263,1.07569 -2.40263,2.402628 z"
       id="path10" />
    <path
       style="fill:#b0653c;stroke:#000000;stroke-width:0.1;stroke-opacity:1;fill-opacity:1"
       d="m 52.393626,132.88332 c -2.180802,-1.32083 -1.045898,-4.31443 2.282401,-1.67378 6.140503,4.14189 12.985433,6.80453 21.150368,6.69509 -0.01773,-7.36959 -0.417988,-13.97433 0.304324,-22.82414 -3.665458,-1.40658 -6.382491,-3.76156 -9.053565,-6.16249 -4.706223,-4.14941 -3.592566,-9.274972 -0.532553,-11.944645 2.776008,-1.807368 5.980615,-3.400451 11.705034,-3.80402 5.724419,0.403569 8.929026,1.996652 11.705034,3.80402 3.060012,2.669673 4.17367,7.795235 -0.532553,11.944645 -2.671075,2.40093 -5.388108,4.75591 -9.053566,6.16249 0.722313,8.84981 0.322104,15.45455 0.304324,22.82414 8.164936,0.10944 15.009865,-2.5532 21.150366,-6.69509 3.3283,-2.64065 4.46321,0.35295 2.2824,1.67378 -3.28318,3.26721 -9.298539,9.95352 -25.856005,10.65125 -16.557466,-0.69773 -22.572821,-7.38404 -25.856009,-10.65125 z"
       id="path9" />
    <path
       style="fill:#ffffff;stroke:#000000;stroke-width:0.1;stroke-opacity:1;fill-opacity:1"
       d="m 20.439844,78.714037 c 6.521582,-7.29615 22.646719,-13.093833 34.844831,-1.978078 0.558694,1.762521 0.6468,4.666271 -1.369431,6.999393 -8.556228,8.29945 -26.528685,8.035422 -33.4754,-5.021315 z"
       id="path8" />
    <path
       style="fill:#b0653c;stroke:#000000;stroke-width:0.1;stroke-opacity:1;fill-opacity:1"
       d="m 153.21091,60.821033 c 1.10101,-0.894 -20.11027,-25.466013 -21.62638,-24.639031 2.75299,-8.039021 17.18984,-10.380425 26.03775,-0.645584 5.002,5.442929 7.38653,19.815096 -4.41137,25.284615 z"
       id="path7" />
    <path
       style="fill:#b0653c;stroke:#000000;stroke-width:0.1;stroke-opacity:1;fill-opacity:1"
       d="m 22.874408,55.053037 c -1.64772,0.697786 -2.748677,-1.220205 -1.293363,-2.510657 7.764727,-7.537133 23.071825,-13.020596 35.453478,-5.173478 2.490179,2.517696 1.762654,7.521866 -3.27144,7.455879 -8.568981,-3.859953 -17.897449,-6.163363 -30.888675,0.228256 z"
       id="path5" />
    <path
       style="fill:#660100;stroke:#000000;stroke-width:0.1;stroke-opacity:1;fill-opacity:1"
       d="m 49.605605,78.71745 c 0,4.428648 -3.590157,8.01878 -8.018806,8.01878 -4.428649,0 -8.01878,-3.590132 -8.01878,-8.01878 0,-4.428649 3.590131,-8.018807 8.01878,-8.018807 4.428675,0 8.018806,3.590131 8.018806,8.018807 z"
       id="path4" />
    <path
       style="fill:#b0653c;stroke:#000000;stroke-width:0.1;stroke-opacity:1;fill-opacity:1"
       d="M 3.2883619,60.821033 C 2.1873513,59.927033 23.398626,35.35502 24.914742,36.182002 22.161752,28.142981 7.7248952,25.801577 -1.1230095,35.536418 -6.1250102,40.979347 -8.509541,55.351514 3.2883619,60.821033 Z"
       id="path3" />
    <path
       style="fill:#ffffff;stroke:#000000;stroke-width:0.1;stroke-opacity:1;fill-opacity:1"
       d="m 40.476131,75.351579 c 0,1.326939 -1.07569,2.402602 -2.402628,2.402602 -1.326912,0 -2.402602,-1.07569 -2.402602,-2.402602 0,-1.326938 1.075663,-2.402628 2.402602,-2.402628 1.326938,0 2.402628,1.07569 2.402628,2.402628 z"
       id="path1" />
  </g>
</svg>
